<svg xmlns="http://www.w3.org/2000/svg" xmlns:xlink="http://www.w3.org/1999/xlink" viewBox="0 0 254 73">
  <defs>
    <linearGradient id="linear-gradient-fo" x1="46.16" y1="65.96" x2="46.16" y2="5.18" gradientUnits="userSpaceOnUse">
      <stop offset="0" stop-color="#003e68"/>
      <stop offset="1" stop-color="#003e68" stop-opacity="0"/>
    </linearGradient>
  </defs>
  <path d="M250.6,15H65.28c0-.58,0-1.14-.06-1.69a1.59,1.59,0,0,0-1.38-1.52c-4.7-.64-5.82-1.47-7.63-6.2a2.09,2.09,0,0,0-1.33-1.28c-11.08-3.44-32.4-3.62-44,0A2.11,2.11,0,0,0,9.55,5.55c-1.81,4.74-2.93,5.56-7.63,6.2A1.6,1.6,0,0,0,.54,13.28c-.06,2.26-.23,4.8-.06,8.1.46,9.09,2.23,20.76,8.86,30.41,5.82,8.48,12.54,13.09,21.21,18.46a2.55,2.55,0,0,0,2.66,0c3.44-2.13,7.72-4.14,10.8-6.31H250.6a3,3,0,0,0,3-3V18A3,3,0,0,0,250.6,15Z" style="fill: #f7f8f8;stroke: #ccc;stroke-miterlimit: 10;stroke-width: 1.0009589814433766px"/>
  <g id="FinancesOnline_Badge" data-name="FinancesOnline Badge">
    <path d="M250.6,15H65.28c0-.58,0-1.14-.06-1.69a1.59,1.59,0,0,0-1.38-1.52c-4.7-.64-5.82-1.47-7.63-6.2a2.09,2.09,0,0,0-1.33-1.28c-11.08-3.44-32.4-3.62-44,0A2.11,2.11,0,0,0,9.55,5.55c-1.81,4.74-2.93,5.56-7.63,6.2A1.6,1.6,0,0,0,.54,13.28c-.06,2.26-.23,4.8-.06,8.1.46,9.09,2.23,20.76,8.86,30.41,5.82,8.48,12.54,13.09,21.21,18.46a2.55,2.55,0,0,0,2.66,0c3.44-2.13,7.72-4.14,10.8-6.31H250.6a3,3,0,0,0,3-3V18A3,3,0,0,0,250.6,15Z" style="fill: #f7f8f8;stroke: #ccc;stroke-miterlimit: 10;stroke-width: 1.0009589814433766px"/>
    <path d="M51.38,7.41c-7.66-3-31.11-3-38.79,0a10.55,10.55,0,0,1-9,7.67C3.62,49.71,17.8,57.14,32,66c14.18-8.82,28.36-16.25,28.36-50.88A10.54,10.54,0,0,1,51.38,7.41Z" style="fill: #005691"/>
    <path d="M51.38,7.41C47.55,5.92,39.77,5.18,32,5.18V66c14.18-8.82,28.36-16.25,28.36-50.88A10.54,10.54,0,0,1,51.38,7.41Z" style="fill: url(#linear-gradient-fo)"/>
    <path d="M22.63,40.14c-6.37,0-9.14-4.29-9.14-8.22A8.2,8.2,0,0,1,16,26l0,0c2.59-2.49,5.93-2,8.1-1a7.75,7.75,0,0,1,7.78-6.46A7.22,7.22,0,0,1,38,22a1,1,0,1,1-1.72,1,5.29,5.29,0,0,0-4.39-2.52A5.81,5.81,0,0,0,26,26.37,17.56,17.56,0,0,0,26,28.51a11.53,11.53,0,0,0-4.15-2.21,4.73,4.73,0,0,0-4.49,1.11,6.08,6.08,0,0,0-1.92,4.51c0,.77.37,6.27,7.17,6.27,5.69,0,7.36-4.47,9.09-7.37,1.92-3.36,4.27-6.63,9.88-6.69,5.85,0,9,4.12,9,8A7.77,7.77,0,0,1,42.87,40a9.47,9.47,0,0,1-4.65-1.59A1,1,0,0,1,38,37a1,1,0,0,1,1.39-.25A7.84,7.84,0,0,0,42.9,38c1.22,0,5.76-1,5.76-5.9,0-3.85-3.49-6-7-6-4.57.05-6.41,2.59-8.16,5.67-2.63,4.73-5.06,8.36-10.87,8.36Z" style="fill: #fff"/>
    <path d="M84,23.35l-5.67,14H75.93l-5.67-14h2.1a.88.88,0,0,1,.87.6c3.55,9.17,3.54,9,3.92,10.53C77.48,33,77.36,33.42,81,24a.91.91,0,0,1,.86-.6Zm4.08,2.08v3.9H93v2H88.05v4h6.24V37.4H85.43v-14h8.86v2.08Zm19.52,12h-2.36a1,1,0,0,1-1-.52c-3.21-4.88-3-4.71-3.32-4.86s-.54-.11-1.71-.11V37.4H96.6v-14h4.28c3,0,5.42,1.07,5.42,4a4.08,4.08,0,0,1-3.1,4C103.86,31.78,103.69,31.68,107.57,37.4ZM100.85,30c1.67,0,2.89-.78,2.89-2.45s-1.21-2.22-2.86-2.22H99.21V30Zm10.87,7.36h-2.63v-14h2.63Zm5.76-12v4.16h5.26v2.09h-5.26V37.4h-2.63v-14h8.87v2.08Zm11,12h-2.63v-14h2.63Zm5.76-12v3.9h4.91v2h-4.91v4h6.24V37.4h-8.87v-14h8.87v2.08Zm21,4.95a6.73,6.73,0,0,1-7.12,7h-5.35v-14c5.65,0,6.61-.13,8.27.52A6.67,6.67,0,0,1,155.26,30.38Zm-2.68,0c0-3.25-1.84-4.95-4.44-4.95h-2.73v9.89c2.9,0,3.55.09,4.58-.34C151.84,34.22,152.58,32.4,152.58,30.38Zm23.84,9.77c-2.26,0-2.5,0-3-.12s-.53-.29-2.75-2.74a7.49,7.49,0,0,1-7.25-1.77,7.68,7.68,0,0,1,0-10.28,7.59,7.59,0,0,1,8.89-1.09c4.42,2.53,4.41,9.37.54,12.12Zm-12.29-9.77c0,3.2,1.83,4.94,4.45,4.94,2.9,0,4.44-2,4.44-4.94s-1.55-5-4.44-5S164.13,27.49,164.13,30.38Zm19.51,4.91c2.09,0,3.21-1.46,3.21-3.52V23.35h2.61v8.42a5.48,5.48,0,0,1-3.39,5.36,7.09,7.09,0,0,1-4.87,0,5.48,5.48,0,0,1-3.39-5.36V23.35h2.62v8.41C180.43,33.87,181.6,35.29,183.64,35.29ZM204.1,37.4c-2.21,0-2.3.05-2.57-.17a1,1,0,0,1-.32-.42l-1.05-2.87h-5.82l-1.05,2.87a.91.91,0,0,1-.86.59h-2l5.53-14h2.66Zm-4.61-5.3c-2-5.53-2-5.25-2.25-6.34A61.81,61.81,0,0,1,195,32.1Zm14.3,3.15V37.4h-8.23v-14h2.61v11.9Zm4.49,2.15h-2.63v-14h2.63Zm12.95-11.9H227V37.4h-2.61V25.5h-4.24V23.35h11.09ZM239.11,32V37.4H236.5V32l-5.12-8.61c2.43,0,2.58-.05,2.85.17s.06-.08,2.9,5.11a13,13,0,0,1,.7,1.52,11.33,11.33,0,0,1,.67-1.52c2.78-5.12,2.59-4.85,2.87-5.09s.32-.19,2.86-.19Z"/>
    <path d="M88.8,46.1v3.18h4v1.6h-4v4.38h-2V44.5h6.79v1.6Zm8.65-.7a1.19,1.19,0,0,1-1.19,1.16,1.17,1.17,0,0,1,0-2.33A1.19,1.19,0,0,1,97.45,45.4Zm-.25,2.23v7.63H95.35V47.63Zm4,.93a3.16,3.16,0,0,1,2.35-1.05c1.69,0,2.58,1.2,2.58,2.89v4.86h-1.84V50.4c0-1.85-1.81-1.83-3-.66v5.52H99.46V47.63h1.12a.45.45,0,0,1,.47.33Zm6.88.13c1.75-1.61,5-1.81,5.81.56.25.72.19.83.19,6-1.46,0-1.32.09-1.62-.95a4.66,4.66,0,0,1-1.14.79,3,3,0,0,1-3-.24,2,2,0,0,1-.22-2.67c.89-1,2.79-1.27,4.16-1.31v-.44c0-.92-.36-1.5-1.27-1.5a2.8,2.8,0,0,0-1.66.57.71.71,0,0,1-.73,0C108.41,49.37,108.4,49.3,108.06,48.69Zm4.2,3.31c-1,0-2.81.18-2.81,1.21,0,.64.4.9,1,.9a2.23,2.23,0,0,0,1.78-.82Zm5.63-3.44a3.16,3.16,0,0,1,2.35-1.05c1.69,0,2.58,1.2,2.58,2.89v4.86H121V50.4c0-1.85-1.81-1.83-3-.66v5.52h-1.84V47.63h1.12a.45.45,0,0,1,.47.33Zm12.13.9c-.18,0-.25-.07-.59-.27a2,2,0,0,0-2.53.39,3.74,3.74,0,0,0,0,3.73,1.89,1.89,0,0,0,2.55.31c.34-.24.41-.34.63-.34s.26.07.87.84a3.74,3.74,0,0,1-3,1.25c-1.89,0-3.44-1.45-3.44-3.94,0-2.29,1.35-3.92,3.71-3.92a3.53,3.53,0,0,1,2.65,1.06C130.38,49.28,130.31,49.46,130,49.46Zm3.76,2.21c.1,1.36.72,2.28,2.09,2.28a2.6,2.6,0,0,0,1.33-.34c.43-.22.56-.33.78-.33a.38.38,0,0,1,.34.17l.53.67a4,4,0,0,1-3.15,1.25c-2.16,0-3.75-1.48-3.75-4.09a3.56,3.56,0,0,1,3.66-3.77A3.17,3.17,0,0,1,138.93,51c0,.44,0,.7-.43.7Zm3.5-1.11a1.57,1.57,0,0,0-1.63-1.74,1.77,1.77,0,0,0-1.83,1.74Zm8.07-1.45c-.25.4-.6.16-1,0a2.43,2.43,0,0,0-1.07-.24c-.59,0-1.16.24-1.16.83,0,1.32,3.73.7,3.73,3.16,0,1.68-1.32,2.54-3,2.54a4.14,4.14,0,0,1-2.65-.94c.45-.74.46-.8.62-.89a.57.57,0,0,1,.6,0,3.65,3.65,0,0,0,.83.41c.61.22,1.61.12,1.86-.48a.74.74,0,0,0-.09-.78c-.72-.77-2.78-.56-3.44-2a2.33,2.33,0,0,1,0-1.76c.77-1.74,3.76-1.9,5.21-.49Zm12.69.77c0,7.35-10.89,7.33-10.89,0S158,42.51,158,49.88Zm-2,0c0-2.22-1.18-3.79-3.4-3.79s-3.41,1.57-3.41,3.79,1.23,3.79,3.41,3.79S156,52.12,156,49.88Zm5.49-1.32a3.18,3.18,0,0,1,2.36-1.05c1.69,0,2.57,1.21,2.57,2.89v4.86h-1.83V50.4a1.66,1.66,0,0,0-.32-1.08c-.44-.53-1.6-.63-2.66.42v5.52h-1.83V47.63h1.12a.46.46,0,0,1,.47.33Zm8.92-4.35v11h-1.84v-11Zm4.38,1.19a1.19,1.19,0,0,1-1.19,1.16,1.17,1.17,0,0,1,0-2.33A1.19,1.19,0,0,1,174.79,45.4Zm-.25,2.23v7.63h-1.85V47.63Zm4,.93a3.15,3.15,0,0,1,2.35-1.05c1.69,0,2.58,1.21,2.58,2.89v4.86h-1.84V50.4a1.66,1.66,0,0,0-.32-1.08c-.44-.53-1.6-.63-2.66.42v5.52H176.8V47.63h1.12a.45.45,0,0,1,.47.33ZM187,51.67c.1,1.36.72,2.28,2.09,2.28a2.63,2.63,0,0,0,1.33-.34c.43-.22.56-.33.78-.33a.38.38,0,0,1,.34.17l.53.67a4,4,0,0,1-3.15,1.25c-2.17,0-3.75-1.48-3.75-4.09a3.56,3.56,0,0,1,3.66-3.77A3.17,3.17,0,0,1,192.14,51c0,.44,0,.7-.43.7Zm3.5-1.11a1.58,1.58,0,0,0-1.63-1.74A1.78,1.78,0,0,0,187,50.56Zm3.14,3.69a1.12,1.12,0,0,1,1.13-1.13,1.13,1.13,0,0,1,1.13,1.13,1.11,1.11,0,0,1-1.13,1.11A1.09,1.09,0,0,1,193.63,54.25Zm9.27-4.79c-.18,0-.25-.07-.59-.27a2,2,0,0,0-2.54.39,3.76,3.76,0,0,0,0,3.73,1.89,1.89,0,0,0,2.55.31c.34-.24.41-.34.63-.34s.26.07.86.84a3.71,3.71,0,0,1-3,1.25c-1.88,0-3.44-1.43-3.44-3.94,0-2.28,1.34-3.92,3.71-3.92a3.53,3.53,0,0,1,2.65,1.06C203.26,49.28,203.19,49.46,202.9,49.46Zm5.72-2a3.59,3.59,0,0,1,3.76,3.92,3.78,3.78,0,1,1-7.55,0A3.61,3.61,0,0,1,208.62,47.51Zm0,6.45c1.42,0,1.87-1.09,1.87-2.52s-.45-2.53-1.87-2.53-1.9,1.1-1.9,2.53S207.18,54,208.62,54Zm5.55,1.3V47.63h1.13a.46.46,0,0,1,.47.33l.11.57a2.65,2.65,0,0,1,2.06-1,1.92,1.92,0,0,1,1.88,1.43,2.81,2.81,0,0,1,4.39-.67,3.15,3.15,0,0,1,.68,2.13v4.86h-1.84V50.4a1.62,1.62,0,0,0-.32-1.1,1.34,1.34,0,0,0-2.17.47c-.14.37-.1.28-.1,5.49h-1.85V50.4c0-.89-.31-1.46-1.21-1.46a1.84,1.84,0,0,0-1.39.73v5.59Z" style="fill: #005691"/>
  </g>
</svg>
