<svg xmlns="http://www.w3.org/2000/svg" xmlns:xlink="http://www.w3.org/1999/xlink" viewBox="0 0 124 136">
  <defs>
    <linearGradient id="linear-gradient-ftp" x1="26.9" y1="100.47" x2="97.1" y2="30.27" gradientUnits="userSpaceOnUse">
      <stop offset="0.13" stop-color="#fade98"/>
      <stop offset="0.56" stop-color="#9e7c48"/>
      <stop offset="0.86" stop-color="#fce19a"/>
    </linearGradient>
    <linearGradient id="linear-gradient-ftp-2" x1="18.52" y1="21.89" x2="105.48" y2="108.85" gradientUnits="userSpaceOnUse">
      <stop offset="0" stop-color="#fce19a"/>
      <stop offset="0.25" stop-color="#c6a76b"/>
      <stop offset="0.44" stop-color="#9e7c48"/>
      <stop offset="1" stop-color="#fade98"/>
    </linearGradient>
    <linearGradient id="linear-gradient-ftp-3" x1="32.57" y1="36.44" x2="91.43" y2="95.3" gradientUnits="userSpaceOnUse">
      <stop offset="0" stop-color="#fade98"/>
      <stop offset="0.56" stop-color="#9e7c48"/>
      <stop offset="1" stop-color="#fce19a"/>
    </linearGradient>
    <linearGradient id="linear-gradient-ftp-4" x1="32.5" y1="36.37" x2="91.5" y2="95.37" gradientUnits="userSpaceOnUse">
      <stop offset="0" stop-color="#e3c584"/>
      <stop offset="0.56" stop-color="#9e7c48"/>
      <stop offset="1" stop-color="#dec080"/>
    </linearGradient>
  </defs>
  <g>
    <path d="M62,15.73a49.64,49.64,0,1,0,49.64,49.64A49.65,49.65,0,0,0,62,15.73Zm0,76.74A27.11,27.11,0,1,1,79.76,44.9c-7.84,8.31-14,18.48-18.84,30.05l-7.3-14.43L38,69.83a63.83,63.83,0,0,1,23.3,20c7.83-13,16.43-23.59,27.09-30.69a26.8,26.8,0,0,1,.74,6.25A27.1,27.1,0,0,1,62,92.47Z" style="stroke: #a07f4b;stroke-miterlimit: 10;stroke-width: 0.29524301000429887px;fill: url(#linear-gradient-ftp)"/>
    <path d="M62,3.88a61.49,61.49,0,1,0,61.49,61.49A61.49,61.49,0,0,0,62,3.88Zm0,105.41a43.93,43.93,0,1,1,43.93-43.92A43.92,43.92,0,0,1,62,109.29Z" style="stroke: #a07f4b;stroke-miterlimit: 10;stroke-width: 0.29524301000429887px;fill: url(#linear-gradient-ftp-2)"/>
    <path d="M62,22.86l1.16,2.35,2.6.38-1.88,1.83L64.32,30,62,28.78,59.68,30l.44-2.58-1.88-1.83,2.6-.38Zm6.74,5-1.6.23,1.16,1.13L68,30.8l1.44-.75,1.43.75-.27-1.59,1.16-1.13-1.61-.23-.71-1.46Zm5.72,2.58-1.13.16.82.8L74,32.52,75,32l1,.53-.19-1.13.82-.8-1.14-.16-.5-1Zm-19.92-4-.71,1.46-1.61.23,1.16,1.13-.27,1.59,1.43-.75L56,30.8l-.28-1.59,1.16-1.13-1.6-.23ZM49,29.4l-.5,1-1.14.16.82.8L48,32.52,49,32l1,.53-.2-1.13.82-.8-1.13-.16ZM71.9,101.81c.45-.13.88-.28,1.32-.42a4.78,4.78,0,0,0,3.84,2A14.1,14.1,0,0,0,83,102a8.33,8.33,0,0,0-4.9-1.68,14.07,14.07,0,0,0-2.35.15,39.21,39.21,0,0,0,4.15-1.9,4.78,4.78,0,0,0,4.07,1.23,11.69,11.69,0,0,0,5.39-2.43,8.64,8.64,0,0,0-5.21-.76,13.71,13.71,0,0,0-1.69.44,35.88,35.88,0,0,0,3.27-2.42A4.8,4.8,0,0,0,90,95a10.16,10.16,0,0,0,4.45-3.25,8.33,8.33,0,0,0-5.33.24c-.37.17-.7.33-1,.49.83-.83,1.61-1.7,2.35-2.6a4.81,4.81,0,0,0,4.21-.41,10.3,10.3,0,0,0,3.83-4,8.37,8.37,0,0,0-5.22,1.14c-.36.25-.67.48-1,.7a35.2,35.2,0,0,0,2-3.24A4.78,4.78,0,0,0,98.32,83a8.91,8.91,0,0,0,2.89-4.27,6.74,6.74,0,0,0-4.75,1.74,12,12,0,0,0-.95,1c.49-1.16.92-2.36,1.3-3.59a4.74,4.74,0,0,0,4-1.82,9,9,0,0,0,2.11-4.7,6.74,6.74,0,0,0-4.38,2.53,11.19,11.19,0,0,0-1.12,1.84c.31-1.27.56-2.57.75-3.89A5.75,5.75,0,0,0,102,69.32a9,9,0,0,0,1.32-5.5A7,7,0,0,0,99.6,67a15.24,15.24,0,0,0-1.22,2.78c.12-1.3.2-2.63.2-4,0-.19,0-.36,0-.54a5.7,5.7,0,0,0,3.36-3.09,9,9,0,0,0,.43-5.64,7,7,0,0,0-3.15,3.68,15.74,15.74,0,0,0-.71,2.7c-.07-1.48-.2-2.9-.39-4.27a5.74,5.74,0,0,0,2.67-3.67,9.53,9.53,0,0,0-.76-5.83,8.25,8.25,0,0,0-2.28,4.43,15.18,15.18,0,0,0-.18,2.14,35.53,35.53,0,0,0-1-3.55,5.77,5.77,0,0,0,1.73-4.21,10,10,0,0,0-2-5.48A7.76,7.76,0,0,0,95,47.27a14.16,14.16,0,0,0,.2,1.53,30.48,30.48,0,0,0-1.6-2.92,6.09,6.09,0,0,0,.81-4.46,9.6,9.6,0,0,0-3.09-5,9.22,9.22,0,0,0-.09,5A15,15,0,0,0,92,43.53a31.63,31.63,0,0,0-2.87-3.31,5.25,5.25,0,0,0,.13-4.32,11.82,11.82,0,0,0-4-4.82,10.09,10.09,0,0,0,.8,5.1,14.52,14.52,0,0,0,1.39,2.38c-.78-.69-1.61-1.36-2.47-2A6.13,6.13,0,0,0,82.69,33a5.89,5.89,0,0,0-4.41-1.34,5.86,5.86,0,0,0,2.32,4,6,6,0,0,0,4,1.37c.66.52,1.3,1,1.91,1.56A6,6,0,0,0,84.71,38a5.64,5.64,0,0,0-4.48,1.11,10.41,10.41,0,0,0,4.78,2,6,6,0,0,0,3.71-.45,31.72,31.72,0,0,1,3,3.52,6.25,6.25,0,0,0-2.07-1.23,5.66,5.66,0,0,0-4.6.32,10.43,10.43,0,0,0,4.36,2.8,6.09,6.09,0,0,0,3.73.19,28.87,28.87,0,0,1,2.23,4.36,7,7,0,0,0-2.2-2.1A5.65,5.65,0,0,0,88.59,48a10.39,10.39,0,0,0,3.79,3.54,6.09,6.09,0,0,0,3.66.86,34.34,34.34,0,0,1,1.15,4.36,7.37,7.37,0,0,0-1.62-2.24,4.89,4.89,0,0,0-4.38-1.27,12.36,12.36,0,0,0,3,3.8,6,6,0,0,0,3.37,1.7c.18,1.32.31,2.68.38,4.1a7.53,7.53,0,0,0-1-2A4.06,4.06,0,0,0,93.07,59a9.44,9.44,0,0,0,2,3.89,6,6,0,0,0,3,2.31c0,.18,0,.34,0,.52,0,1.16,0,2.31-.14,3.44a7.32,7.32,0,0,0-.65-1.89,4,4,0,0,0-3.48-2.46A9.39,9.39,0,0,0,95,69a6.06,6.06,0,0,0,2.54,2.76c-.16,1.16-.36,2.29-.62,3.4a7.17,7.17,0,0,0-.42-1.91,4.08,4.08,0,0,0-3.18-2.84,9.49,9.49,0,0,0,.81,4.28,6.24,6.24,0,0,0,2.11,3A37,37,0,0,1,94.61,82a7.29,7.29,0,0,0,0-2.51A5.2,5.2,0,0,0,92,75.73a8.39,8.39,0,0,0-.24,4.65,5.84,5.84,0,0,0,1.94,3.51,34.11,34.11,0,0,1-2.65,4.23,8.29,8.29,0,0,0,.7-3.15,5.06,5.06,0,0,0-2-4.13,10.65,10.65,0,0,0-1.1,4.94,5.7,5.7,0,0,0,1.3,3.78,32.54,32.54,0,0,1-3.26,3.49,8.15,8.15,0,0,0,1.22-3,5.05,5.05,0,0,0-1.29-4.42,10.54,10.54,0,0,0-1.93,4.68,5.77,5.77,0,0,0,.61,3.91,36.33,36.33,0,0,1-4,2.85A8.07,8.07,0,0,0,83,94.58a5.07,5.07,0,0,0-.32-4.6,10.61,10.61,0,0,0-2.89,4.16,5.73,5.73,0,0,0-.23,4,37.59,37.59,0,0,1-4.69,2.11,8.8,8.8,0,0,0,2.32-2.35,5.7,5.7,0,0,0,.71-4.61,11.29,11.29,0,0,0-4,3.76,5.77,5.77,0,0,0-.91,3.82c-.43.14-.86.29-1.3.42Zm-19.42-.5L51,100.84A5.77,5.77,0,0,0,50.09,97a11.29,11.29,0,0,0-4-3.76,5.7,5.7,0,0,0,.71,4.61,8.8,8.8,0,0,0,2.32,2.35,37.59,37.59,0,0,1-4.69-2.11,5.73,5.73,0,0,0-.23-4A10.61,10.61,0,0,0,41.35,90a5.07,5.07,0,0,0-.32,4.6,8.07,8.07,0,0,0,1.72,2.52,36.33,36.33,0,0,1-4-2.85,5.77,5.77,0,0,0,.61-3.91,10.54,10.54,0,0,0-1.93-4.68,5.05,5.05,0,0,0-1.29,4.42,8.15,8.15,0,0,0,1.22,3,32.54,32.54,0,0,1-3.26-3.49,5.7,5.7,0,0,0,1.3-3.78,10.65,10.65,0,0,0-1.1-4.94,5.06,5.06,0,0,0-2,4.13,8.29,8.29,0,0,0,.7,3.15,34.11,34.11,0,0,1-2.65-4.23,5.84,5.84,0,0,0,1.94-3.51A8.39,8.39,0,0,0,32,75.73a5.2,5.2,0,0,0-2.6,3.74,7.29,7.29,0,0,0,0,2.51,37,37,0,0,1-1.65-4.34,6.24,6.24,0,0,0,2.11-3,9.49,9.49,0,0,0,.81-4.28,4.08,4.08,0,0,0-3.18,2.84,7.17,7.17,0,0,0-.42,1.91c-.26-1.11-.46-2.24-.62-3.4A6.06,6.06,0,0,0,29,69a9.39,9.39,0,0,0,1.3-4.15A4,4,0,0,0,26.8,67.3a7.32,7.32,0,0,0-.65,1.89c-.09-1.13-.14-2.28-.14-3.44,0-.18,0-.34,0-.52a6,6,0,0,0,3-2.31A9.44,9.44,0,0,0,30.93,59a4.06,4.06,0,0,0-3.84,1.86,7.53,7.53,0,0,0-1,2c.07-1.42.2-2.78.38-4.1A6,6,0,0,0,29.84,57a12.36,12.36,0,0,0,3-3.8,4.89,4.89,0,0,0-4.38,1.27,7.37,7.37,0,0,0-1.62,2.24A34.34,34.34,0,0,1,28,52.39a6.09,6.09,0,0,0,3.66-.86A10.39,10.39,0,0,0,35.41,48a5.65,5.65,0,0,0-4.59.51,7,7,0,0,0-2.2,2.1,28.87,28.87,0,0,1,2.23-4.36,6.09,6.09,0,0,0,3.73-.19,10.43,10.43,0,0,0,4.36-2.8,5.66,5.66,0,0,0-4.6-.32,6.25,6.25,0,0,0-2.07,1.23,31.72,31.72,0,0,1,3-3.52,6,6,0,0,0,3.71.45,10.41,10.41,0,0,0,4.78-2A5.64,5.64,0,0,0,39.29,38a6,6,0,0,0-1.82.61c.61-.52,1.25-1,1.91-1.56a6,6,0,0,0,4-1.37,5.86,5.86,0,0,0,2.32-4A5.89,5.89,0,0,0,41.31,33a6.13,6.13,0,0,0-2.25,3.52c-.86.67-1.69,1.34-2.47,2A14.52,14.52,0,0,0,38,36.18a10.09,10.09,0,0,0,.8-5.1,11.82,11.82,0,0,0-4.05,4.82,5.25,5.25,0,0,0,.13,4.32A31.63,31.63,0,0,0,32,43.53a15,15,0,0,0,.75-2.15,9.22,9.22,0,0,0-.09-5,9.6,9.6,0,0,0-3.09,5,6.09,6.09,0,0,0,.81,4.46,30.48,30.48,0,0,0-1.6,2.92,14.16,14.16,0,0,0,.2-1.53,7.76,7.76,0,0,0-1.32-4.85,10,10,0,0,0-2,5.48,5.77,5.77,0,0,0,1.73,4.21,35.53,35.53,0,0,0-1,3.55,15.18,15.18,0,0,0-.18-2.14A8.25,8.25,0,0,0,24,49.09a9.53,9.53,0,0,0-.76,5.83,5.74,5.74,0,0,0,2.67,3.67c-.19,1.37-.32,2.79-.39,4.27a15.74,15.74,0,0,0-.71-2.7,7,7,0,0,0-3.15-3.68,9,9,0,0,0,.43,5.64,5.7,5.7,0,0,0,3.36,3.09c0,.18,0,.35,0,.54,0,1.35.08,2.68.2,4A15.24,15.24,0,0,0,24.4,67a7,7,0,0,0-3.69-3.13A9,9,0,0,0,22,69.32a5.75,5.75,0,0,0,3.82,2.51c.19,1.32.44,2.62.75,3.89a11.19,11.19,0,0,0-1.12-1.84,6.74,6.74,0,0,0-4.38-2.53,9,9,0,0,0,2.11,4.7,4.74,4.74,0,0,0,4,1.82c.38,1.23.81,2.43,1.3,3.59a12,12,0,0,0-.95-1,6.74,6.74,0,0,0-4.75-1.74A8.91,8.91,0,0,0,25.68,83a4.78,4.78,0,0,0,4.07,1.14,35.2,35.2,0,0,0,1.95,3.24c-.28-.22-.59-.45-.95-.7a8.37,8.37,0,0,0-5.22-1.14,10.3,10.3,0,0,0,3.83,4,4.81,4.81,0,0,0,4.21.41c.74.9,1.52,1.77,2.35,2.6-.29-.16-.62-.32-1-.49a8.33,8.33,0,0,0-5.33-.24A10.16,10.16,0,0,0,34.05,95a4.8,4.8,0,0,0,4.26-.34,35.88,35.88,0,0,0,3.27,2.42,13.71,13.71,0,0,0-1.69-.44,8.64,8.64,0,0,0-5.21.76,11.69,11.69,0,0,0,5.39,2.43,4.78,4.78,0,0,0,4.07-1.23,39.21,39.21,0,0,0,4.15,1.9,14.07,14.07,0,0,0-2.35-.15A8.33,8.33,0,0,0,41,102a14.1,14.1,0,0,0,5.9,1.31,4.78,4.78,0,0,0,3.84-2c.51.17,1,.34,1.54.49Z" style="stroke-linejoin: round;stroke-width: 0.2px;fill: url(#linear-gradient-ftp-3);stroke: url(#linear-gradient-ftp-4)"/>
    <path d="M62.78,121.58c-1.36,0-2.74,0-4.08-.14l.58-8c1.16.08,2.34.12,3.5.12h.15V115H62.8l-1.35,0h-.11l-.05,1.8h1.55v1.34h-.11c-.45,0-.9,0-1.36,0h-.12l0,2.06h.12l1.45,0h.37v1.42Zm1.4,0c.29-1.5.55-3,.79-4.5-.34-1.21-.66-2.37-1-3.54.67,0,1.34,0,2-.09.1.37.2.72.31,1.07s.22.68.32,1.06h.23c.11-.74.21-1.47.31-2.2q.86-.07,1.71-.18c-.12,1.19-.25,2.39-.4,3.58.59,1.49,1.22,2.93,1.87,4.34-.75.1-1.5.18-2.25.25a19.54,19.54,0,0,1-1-2.85l-.23,0c0,.62-.06,1-.29,2.94C65.78,121.51,65,121.54,64.18,121.56Zm9.28-.87a2,2,0,0,1-1.91-.82,9.29,9.29,0,0,1-.7-3.07l-.15-1a9.2,9.2,0,0,1-.13-1.32c0-.16.06-1.63,2.25-2.07a4.68,4.68,0,0,1,.91-.09,2.16,2.16,0,0,1,1.8.72,4.91,4.91,0,0,1,.63,1.55l.17.65c-.73.19-1.46.36-2.2.52l-.11-.49a5.62,5.62,0,0,0-.43-1.6.39.39,0,0,0-.33-.14h-.15a.49.49,0,0,0-.43.35,2.85,2.85,0,0,0,.08.87l.75,3.77a2.26,2.26,0,0,0,.26.81.46.46,0,0,0,.37.16.62.62,0,0,0,.18,0,.48.48,0,0,0,.43-.34,2.38,2.38,0,0,0-.09-.92l-.2-.9c.76-.17,1.52-.34,2.28-.54a6.46,6.46,0,0,1,.3,2c-.1.7-1,1.57-2.46,1.87A5.7,5.7,0,0,1,73.46,120.69Zm-22.81-.37c-.81-.17-1.62-.35-2.42-.56l2-7.78c1.2.3,2.42.56,3.64.78l-.25,1.4-1.52-.29-.11,0-.38,1.77.12,0c.46.1.93.19,1.39.27l-.24,1.32c-.48-.08-.95-.18-1.43-.28l-.11,0ZM77,111.53c1.17-.34,2.34-.73,3.49-1.16L81,111.7c-.47.18-.94.34-1.41.5l-.12,0L80,114l.11,0c.46-.15.91-.31,1.37-.48l.47,1.25c-.46.18-.93.34-1.4.5l-.11,0,.67,2,.11,0,1.73-.62.51,1.33c-1.39.52-2.82,1-4.26,1.41Zm-32,7.28a4.57,4.57,0,0,1-1.43-.26c-1.54-.53-2.4-1.58-2.14-2.63a43.58,43.58,0,0,1,1.88-4.58,2,2,0,0,1,1.79-1,3.9,3.9,0,0,1,1.24.23c2,.69,2,2,1.93,2.41s-.21.94-.43,1.72l-.15.52a25,25,0,0,1-.8,2.51A1.94,1.94,0,0,1,45,118.81Zm.79-7.12a.41.41,0,0,0-.24.08c-.08,0-.2.18-.4.75l-1.31,3.64a2.57,2.57,0,0,0-.23.91c0,.12.07.29.34.38a.78.78,0,0,0,.21,0,.42.42,0,0,0,.31-.15,2.91,2.91,0,0,0,.4-.89l1.22-3.6a2,2,0,0,0,.18-.78.52.52,0,0,0-.48-.38Zm36.08-1.87c.66-.27,1.31-.55,2-.85l2.8,6,.11,0c.46-.21.91-.43,1.37-.66l.63,1.28c-1.23.61-2.51,1.18-3.8,1.71Zm4.39-2c.63-.34,1.25-.68,1.87-1l3.37,5.72.1-.06c.44-.26.88-.52,1.31-.79l.76,1.2c-1.19.74-2.41,1.45-3.65,2.1Zm-51,7c-.76-.41-1.51-.83-2.26-1.28q.42-1.77.9-3.51l-.21-.09-1.82,2.91c-.72-.45-1.43-.92-2.13-1.4l4.6-6.62c.59.41,1.19.81,1.8,1.19l-1.64,2.63.17.16q1.3-1.05,2.55-2.13c.57.34,1.15.66,1.73,1C38,108.41,37,109.24,36,110,35.68,111.63,35.43,113.19,35.23,114.73Zm55.21-9.44c1-.7,2.09-1.44,3.08-2.21l.87,1.12q-.6.48-1.23.93l-.09.07,1.06,1.46.1-.07c.4-.29.8-.59,1.19-.9l.82,1.06c-.4.32-.81.62-1.22.92l-.1.08,1.22,1.66.09-.07c.51-.37,1-.75,1.51-1.15l.88,1.12c-1.2,1-2.46,1.86-3.74,2.71Zm-62.25,5c-.63-.47-1.26-1-1.88-1.45l1.66-2c.4-.5.45-.7.45-.8s-.14-.38-.47-.65l-.09-.07-2.39,2.87c-.66-.56-1.32-1.13-2-1.73L29,100.47c.39.36.8.72,1.2,1.07a20.55,20.55,0,0,1,1.72,1.56,1.8,1.8,0,0,1-.19,2.41c-.45.62-.75.85-1.09.85a1.76,1.76,0,0,1-.9-.37l-.16.17c.19.2.74.86.53,1.45a17.3,17.3,0,0,1-1.38,2Zm.35-5.83.09.07a1.42,1.42,0,0,0,.59.34h0c.21,0,.41-.14.64-.43l.29-.36a.73.73,0,0,0,.22-.61,1.21,1.21,0,0,0-.42-.54l-.09-.07Zm66.2-2.35c.47-.39.94-.79,1.39-1.2,1.16.61,2.34,1.19,3.51,1.73l.14-.18-2.49-2.63c.44-.42.87-.85,1.3-1.29l5.77,5.61c-.53.56-1.08,1.1-1.64,1.64-1.18-.56-2.37-1.15-3.53-1.76l-.14.18,2.43,2.72c-.53.48-1.07.94-1.61,1.4ZM22.56,105.5q-1-.93-1.89-1.92l1-1.13-.83-.91-1.21.87c-.61-.68-1.22-1.4-1.81-2.12,2.38-1.31,4.75-2.69,7.05-4.11.73.86,1.51,1.71,2.3,2.52C25.58,100.9,24,103.18,22.56,105.5Zm2.16-6.89c-1.33.88-2.32,1.53-2.92,2l-.1.08.82.9.08-.11c.6-.76,1.36-1.66,2.27-2.67Zm80.75,3.32a1.48,1.48,0,0,1-.42-.07c-1-.35-4-3.38-4.19-3.6s-.93-1.37.56-3.21a3.35,3.35,0,0,1,2.34-1.48,1.36,1.36,0,0,1,.29,0,4.7,4.7,0,0,1,1.48.79l.54.39c-.49.68-1,1.35-1.5,2l-1-.82c-.46-.37-.63-.44-.72-.45h0a.53.53,0,0,0-.44.23.49.49,0,0,0-.12.56,2.12,2.12,0,0,0,.6.63l3,2.46a2,2,0,0,0,.72.45h0a.6.6,0,0,0,.5-.26.53.53,0,0,0,.14-.56c-.1-.23-.43-.49-1.16-1.07l-.21-.18c.52-.67,1-1.36,1.54-2.06l.17.12a4.56,4.56,0,0,1,1.3,1.23c.36.63.18,1.94-.85,3.23A3.7,3.7,0,0,1,105.47,101.93ZM17,99.23c-.48-.62-.95-1.26-1.41-1.91L20,94.14l-.12-.2c-1.67.81-3.37,1.6-5.06,2.34l-.93-1.41c1.3-1.26,2.64-2.51,4-3.73L17.77,91l-4.56,2.78q-.63-1-1.23-2.13l7-3.87c.52.92,1.07,1.85,1.64,2.76l-.81.77c-.38.34-.83.76-2,1.87l.13.2c1.16-.52,2.32-1.06,3.46-1.6.59.87,1.21,1.72,1.84,2.54Zm87.31-7.79c.77-1.15,1.49-2.34,2.17-3.56l1.24.69c-.28.5-.56,1-.85,1.48l-.06.1,1.54.94.07-.11c.28-.47.55-.94.82-1.43l1.17.66c-.27.49-.56,1-.85,1.46l-.06.11,1.77,1.06.06-.11c.35-.59.7-1.2,1-1.81l1.24.68c-.82,1.49-1.7,3-2.63,4.34ZM114.09,68a2.33,2.33,0,1,1,2.33-2.33A2.33,2.33,0,0,1,114.09,68ZM9.91,68a2.33,2.33,0,1,1,2.34-2.33A2.33,2.33,0,0,1,9.91,68ZM99.47,31.86a1.69,1.69,0,0,1-.66-.25,9.05,9.05,0,0,1-1.06-.88c-.45-.4-1.06-.95-2-1.71l5.08-6.23c.48.39,1,.79,1.42,1.2a11.92,11.92,0,0,1,1.8,1.83c.86,1.24.21,1.88-.67,2.76l-2.2,2.2c-.77.77-1.16,1.09-1.61,1.09Zm-1.35-2.39.09.08a1,1,0,0,0,.6.32c.21,0,.41-.15.93-.71l1-1.14a13.61,13.61,0,0,0,1.6-1.82.44.44,0,0,0,0-.4,1.42,1.42,0,0,0-.41-.49l-.09-.08ZM21.23,26.68l-.09.08c-.34.33-.68.66-1,1l-1-1c1.31-1.3,2.69-2.56,4.11-3.74l.9,1.1L23.06,25,23,25.1l4.35,5c-.52.46-1,.92-1.53,1.39ZM95,28.41c-.49-.39-1-.76-1.48-1.13l1.55-2.13c.37-.5.42-.69.41-.8s-.14-.37-.45-.58L95,23.7l-2.16,3c-.55-.39-1.1-.77-1.66-1.13l4.38-6.75c.48.31.95.63,1.42,1a13.48,13.48,0,0,1,1.93,1.54,1.71,1.71,0,0,1-.17,2.43,1.32,1.32,0,0,1-2,.47l-.15.18c.46.53.6,1,.43,1.38a5.43,5.43,0,0,1-.7,1Zm.54-5.57.1.07a1.37,1.37,0,0,0,.59.28h0c.2,0,.39-.15.62-.47l.27-.36a.76.76,0,0,0,.19-.63,1.14,1.14,0,0,0-.47-.52l-.09-.06ZM29.25,28a1.83,1.83,0,0,1-1.28-.5,41.88,41.88,0,0,1-3.12-3.84c-.1-.16-.91-1.57,1.16-3.08A3.35,3.35,0,0,1,28,19.87a1.73,1.73,0,0,1,1.31.56A42.09,42.09,0,0,1,32,24.56c.18.35.63,1.61-1,2.83A3,3,0,0,1,29.25,28ZM27,21.44a.55.55,0,0,0-.51.49c0,.09,0,.27.4.75l2.3,3.11c.4.53.54.66.62.7a.31.31,0,0,0,.19.06h0a.5.5,0,0,0,.38-.2.41.41,0,0,0,.07-.37,3.48,3.48,0,0,0-.51-.82l-2.23-3.08c-.31-.44-.45-.55-.53-.59A.41.41,0,0,0,27,21.44Zm63.6,3.82q-.85-.54-1.74-1.05l.65-1.35-.9-.51-.84,1.23c-.6-.33-1.2-.64-1.81-.95,1.52-2.23,3.11-4.46,4.72-6.62,1,.54,2,1.12,3,1.72C92.74,20.25,91.69,22.79,90.6,25.26Zm.75-6.93c-.9,1.13-1.65,2.13-2.11,2.81l-.08.11.93.52,0-.12c.37-.87.84-1.94,1.41-3.2Zm-61.88.13c.7-.44,1.4-.87,2.11-1.28A6.12,6.12,0,0,1,33,16.52a2.28,2.28,0,0,1,.55-.08,1.1,1.1,0,0,1,.88.39,5,5,0,0,1,.6,1l.33.64c.41.79.51,1.23.06,1.78a4.27,4.27,0,0,1-1.24.9l-.38.22,1.68,2.89c-.58.33-1.14.67-1.7,1ZM32.78,18a1.31,1.31,0,0,0-.63.23l-.1.06,1.17,2,.1-.05c.25-.13.5-.28.55-.52a1.09,1.09,0,0,0-.2-.68l-.33-.59c-.16-.28-.32-.43-.49-.46ZM82.7,21.14l1-4.19-.21-.08-2.14,3.71L79,19.74l1.5-8,2.08.69-1.43,5.41.22.08,2.56-5,2.23.9-1.83,5.5.22.1,3-5,2,1L85,22.17Zm-40.52-.27c-1.29,0-1.76-1.06-2.21-2.09l-1-2.22a8.53,8.53,0,0,1-.47-1.24c-.21-.8.29-1.94,1.9-2.55a4.44,4.44,0,0,1,1.5-.3,1.73,1.73,0,0,1,1.4.56,4.81,4.81,0,0,1,.72,1.51l.2.64c-.67.22-1.35.45-2,.7l-.19-.5a5.55,5.55,0,0,0-.65-1.5.39.39,0,0,0-.26-.09.52.52,0,0,0-.24.05c-.3.11-.37.29-.37.42a2.41,2.41,0,0,0,.22.84l1.39,3.58a2.86,2.86,0,0,0,.38.75.41.41,0,0,0,.29.13.63.63,0,0,0,.22,0,.41.41,0,0,0,.31-.39,5.2,5.2,0,0,0-.45-1.49l-.1-.26c.65-.24,1.3-.47,2-.68a7.36,7.36,0,0,1,.45,1.95,2.34,2.34,0,0,1-1.72,1.95A3.67,3.67,0,0,1,42.18,20.87Zm2.13-9.24c.72-.22,1.44-.43,2.17-.62l.76,2.86.92-.23-.72-2.88c.73-.18,1.46-.34,2.2-.5l1.64,7.88c-.63.13-1.26.27-1.89.43l-.84-3.38-.9.23.89,3.37c-.63.16-1.25.34-1.86.53Zm33.17,7.63c-.63-.19-1.26-.37-1.9-.54l.26-1.47-1-.24-.48,1.42q-1-.24-1.95-.42c.86-2.55,1.78-5.12,2.75-7.65,1.11.24,2.22.51,3.31.82C78.22,13.86,77.88,16.57,77.48,19.26ZM76.41,12.4c-.56,1.33-1,2.49-1.27,3.28l0,.12,1,.25,0-.13c.12-.94.29-2.09.5-3.46ZM53.79,17.81a2,2,0,0,1-2-1.34,45.19,45.19,0,0,1-1-4.85c0-.18-.07-1.8,2.33-2.16a5.13,5.13,0,0,1,.65-.05A2,2,0,0,1,56,10.83a46.11,46.11,0,0,1,.51,4.92c0,.82-.58,1.78-2.12,2A3.75,3.75,0,0,1,53.79,17.81Zm-.5-7.2a.47.47,0,0,0-.35.24c0,.08-.09.25,0,.85l.6,3.82a3.19,3.19,0,0,0,.21.91.36.36,0,0,0,.33.19c.29,0,.42-.16.45-.34a4.45,4.45,0,0,0-.07-1l-.54-3.77a2.52,2.52,0,0,0-.19-.77.4.4,0,0,0-.34-.17h-.1Zm15.58,6.82c-1.16-.15-2.33-.25-3.49-.32l.47-8c1.3.07,2.6.19,3.89.35l-.18,1.41-1.5-.16-.11,0-.18,1.8h.11l1.35.15L69.06,14l-1.31-.14-.11,0-.21,2.05h.12l1.5.17ZM56.67,9.21c.74-.06,1.49-.12,2.24-.16l.41,8c-.64,0-1.27.08-1.91.13Zm5.69,8c-1.2,0-2-.42-2.31-1.17a6.13,6.13,0,0,1-.28-1.77l-.11-2.42c0-1.26-.1-2.23,1.27-2.79a3.64,3.64,0,0,1,1.37-.24c1,0,2.28.34,2.6,1.27A4.86,4.86,0,0,1,65,11.74l0,.66q-1,0-2.1-.06v-.51a5.66,5.66,0,0,0-.07-1.65.46.46,0,0,0-.45-.22c-.32,0-.44.14-.49.26a2.59,2.59,0,0,0-.09.86l0,3.85a2.81,2.81,0,0,0,.08.83.43.43,0,0,0,.44.26.41.41,0,0,0,.43-.26,5,5,0,0,0,.11-1.51v-.32l2,.06v.21A6,6,0,0,1,64.63,16a2.3,2.3,0,0,1-2.26,1.21Z" style="fill: #fff"/>
    <path d="M84.84,135.88v-5.76h1.3a3.17,3.17,0,0,1,.86.09.87.87,0,0,1,.41.25,1,1,0,0,1,.19.41,5,5,0,0,1,.05.81v.52a2.43,2.43,0,0,1-.1.79.63.63,0,0,1-.34.34,1.53,1.53,0,0,1-.7.13H86v2.42ZM86,132.66h.13c.27,0,.38,0,.45-.15a.91.91,0,0,0,.1-.51v-.49a.68.68,0,0,0-.12-.48.59.59,0,0,0-.45-.13H86Zm-4,3.22v-4.8h-.84v-1H84v1h-.83v4.8Zm-3.61,0v-5.76h2.16v1h-1v1.37h.87v.91h-.87v2.52Zm-5.83,0v-2.06l-1-3.7h1c.19,1.1.36,1.86.37,2.25h.14c0-.61.25-1.36.42-2.25h1.05l-1,3.67v2.09Zm-4.74,0v-5.76H69.1a3.1,3.1,0,0,1,1,.11.88.88,0,0,1,.49.41,2.15,2.15,0,0,1,.19,1.06,1.29,1.29,0,0,1-.12.67,1,1,0,0,1-.53.27v.23a.92.92,0,0,1,.6.35,1.66,1.66,0,0,1,.15.81v.55a2.32,2.32,0,0,1-.11.86.57.57,0,0,1-.34.34,3.62,3.62,0,0,1-1.08.1Zm1.18-.79h.12a.57.57,0,0,0,.46-.14.8.8,0,0,0,.12-.53v-.56c0-.38-.06-.49-.11-.55s-.22-.12-.47-.13H69Zm0-2.61h.26c.23,0,.33-.09.37-.18a1.78,1.78,0,0,0,.07-.7,1.12,1.12,0,0,0-.06-.43.33.33,0,0,0-.19-.21.8.8,0,0,0-.33,0H69Zm-8.23,3.4v-5.76h.94a5.65,5.65,0,0,1,1.35.1.9.9,0,0,1,.49.3,1,1,0,0,1,.21.47,8.59,8.59,0,0,1,0,1.12v2.1a4.69,4.69,0,0,1-.07,1,.7.7,0,0,1-.2.37.93.93,0,0,1-.37.19,3.3,3.3,0,0,1-.73.06Zm1.18-.8h.12c.25,0,.41-.06.48-.19a1.93,1.93,0,0,0,.08-.79v-2.33a5.42,5.42,0,0,0,0-.55.38.38,0,0,0-.16-.24.73.73,0,0,0-.38-.07h-.12Zm-4.31.8v-5.76h2.12v1h-.94v1.37h.88v.91h-.88v1.55h1v1Zm-4.08,0v-5.76h.94a5.75,5.75,0,0,1,1.36.1,1,1,0,0,1,.49.3,1.05,1.05,0,0,1,.21.47,9.22,9.22,0,0,1,0,1.12v2.1a5.71,5.71,0,0,1-.06,1,.71.71,0,0,1-.21.37.87.87,0,0,1-.37.19,3.3,3.3,0,0,1-.73.06Zm1.18-.8h.12c.25,0,.41-.06.48-.19a1.93,1.93,0,0,0,.08-.79v-2.33a5.42,5.42,0,0,0,0-.55.35.35,0,0,0-.16-.24.73.73,0,0,0-.38-.07h-.12Zm-3.31.8V134a1.37,1.37,0,0,0-.09-.66c-.07-.11-.22-.17-.46-.17h-.12v2.71H49.58v-5.76h.88a6.59,6.59,0,0,1,1.33.08.8.8,0,0,1,.5.38,2,2,0,0,1,.21,1.06,1.77,1.77,0,0,1-.14.87.72.72,0,0,1-.54.24l0,.23a1,1,0,0,1,.5.26.83.83,0,0,1,.16.31,4.2,4.2,0,0,1,0,.86v1.47Zm-.67-3.4h.12a.72.72,0,0,0,.41-.1c.1-.08.14-.25.14-.56v-.33a.6.6,0,0,0-.13-.46.59.59,0,0,0-.42-.12h-.12Zm-3.14,3.4-.08-1.08h-.72l-.09,1.08H45.5l.7-5.76H48l.78,5.76Zm-.56-4.56c-.14,1.15-.23,2-.27,2.53V134h.75l0-.13c-.07-.68-.14-1.52-.21-2.51Zm-4.21,4.56c-.15-.89-.29-1.91-.4-3H42.2c-.05.49-.18,1.5-.38,3H40.28l-.61-5.76H40.8l.29,4h.23c0-1,.18-2.37.38-4H43q0,.4.15,1.86l.15,2.28h.24c.08-1.4.21-2.8.38-4.14H45l-.61,5.76Zm-4.87,0-.08-1.08h-.72l-.09,1.08H35.86l.7-5.76h1.83l.78,5.76Zm-.56-4.56c-.14,1.15-.23,2-.27,2.53V134h.75l0-.13c-.07-.68-.14-1.52-.21-2.51Z" style="fill: #fff"/>
    <path d="M56.85,104v1.36H53.23v-1.14c1.07-2.12,1.71-3.43,1.91-3.94a3.31,3.31,0,0,0,.31-1.18,1,1,0,0,0-.09-.48.31.31,0,0,0-.28-.16.28.28,0,0,0-.28.17,1.79,1.79,0,0,0-.1.71v.76H53.23V99.8a7.29,7.29,0,0,1,.06-1.06,2.07,2.07,0,0,1,.28-.76,1.51,1.51,0,0,1,.58-.57,1.79,1.79,0,0,1,.86-.19,1.83,1.83,0,0,1,1.49.59A2.24,2.24,0,0,1,57,99.3a4.37,4.37,0,0,1-.28,1.45A32.32,32.32,0,0,1,55.05,104Zm4.86-3.92v2.67a8.16,8.16,0,0,1-.08,1.32,2.12,2.12,0,0,1-.34.77,1.54,1.54,0,0,1-.62.52,2.09,2.09,0,0,1-.81.16,2.5,2.5,0,0,1-1-.17,1.43,1.43,0,0,1-.63-.51,2.71,2.71,0,0,1-.33-.74,6,6,0,0,1-.09-1.23v-2.79A6.63,6.63,0,0,1,58,98.43a1.56,1.56,0,0,1,.63-.88,1.89,1.89,0,0,1,1.13-.33,2,2,0,0,1,1,.23,1.77,1.77,0,0,1,.64.56,2,2,0,0,1,.28.74A8.16,8.16,0,0,1,61.71,100.07Zm-1.65-.67a3.17,3.17,0,0,0-.05-.79.22.22,0,0,0-.24-.16.23.23,0,0,0-.24.17,3,3,0,0,0-.06.78v3.9a3.26,3.26,0,0,0,.06.84.22.22,0,0,0,.24.14.22.22,0,0,0,.23-.17,2.82,2.82,0,0,0,.06-.75ZM66.18,104v1.36H62.56v-1.14c1.07-2.12,1.71-3.43,1.91-3.94a3.54,3.54,0,0,0,.31-1.18,1,1,0,0,0-.09-.48.32.32,0,0,0-.29-.16.28.28,0,0,0-.27.17,1.62,1.62,0,0,0-.1.71v.76H62.56V99.8a7.29,7.29,0,0,1,.06-1.06A1.9,1.9,0,0,1,62.9,98a1.51,1.51,0,0,1,.58-.57,1.79,1.79,0,0,1,.86-.19,1.81,1.81,0,0,1,1.48.59,2.19,2.19,0,0,1,.51,1.49,4.15,4.15,0,0,1-.29,1.45A29.39,29.39,0,0,1,64.38,104Zm4.52,0v1.36H67.08v-1.14c1.08-2.12,1.71-3.43,1.91-3.94a3.31,3.31,0,0,0,.31-1.18,1,1,0,0,0-.09-.48.31.31,0,0,0-.28-.16.28.28,0,0,0-.28.17,1.85,1.85,0,0,0-.09.71v.76H67.08V99.8a7.29,7.29,0,0,1,.06-1.06,2.07,2.07,0,0,1,.28-.76,1.51,1.51,0,0,1,.58-.57,1.79,1.79,0,0,1,.86-.19,1.83,1.83,0,0,1,1.49.59,2.24,2.24,0,0,1,.5,1.49,4.37,4.37,0,0,1-.28,1.45A32.32,32.32,0,0,1,68.9,104Z" style="fill: #fff"/>
  </g>
</svg>
