<svg xmlns="http://www.w3.org/2000/svg" viewBox="0 0 250 73">
  <g>
    <rect x="0.5" y="11.88" width="249" height="53" rx="10" style="fill: #fff;stroke: #ea532a"/>
    <path d="M56.44,29.05H55.06v2.33H53.72V24.9h2.82a2.24,2.24,0,0,1,1.55.5A1.92,1.92,0,0,1,58.67,27a2,2,0,0,1-.58,1.62A2.52,2.52,0,0,1,56.44,29.05Zm.63-1.35a.93.93,0,0,0,.26-.74.89.89,0,0,0-.26-.72,1.14,1.14,0,0,0-.75-.22H55.06v1.91h1.26A1.14,1.14,0,0,0,57.07,27.7Zm4.93,0a1.05,1.05,0,0,0-1,.49,1.91,1.91,0,0,0-.14.86v2.29H59.57v-4.8h1.2v.84a2.47,2.47,0,0,1,.5-.65,1.38,1.38,0,0,1,.92-.3h.17v1.28H62Zm5.08-.55a2.78,2.78,0,0,1,.61,1.8,2.74,2.74,0,0,1-.61,1.8,2.21,2.21,0,0,1-1.84.75,2.24,2.24,0,0,1-1.84-.75,2.79,2.79,0,0,1-.6-1.8,2.83,2.83,0,0,1,.6-1.8,2.21,2.21,0,0,1,1.84-.76A2.19,2.19,0,0,1,67.08,27.19Zm-1.84.3a1,1,0,0,0-.85.39,2.27,2.27,0,0,0,0,2.22,1,1,0,0,0,.85.39,1,1,0,0,0,.84-.39,2.2,2.2,0,0,0,0-2.22A1,1,0,0,0,65.24,27.49ZM73,24.91v6.47H71.73v-.67a1.73,1.73,0,0,1-.61.62,1.7,1.7,0,0,1-.85.19,1.8,1.8,0,0,1-1.42-.67,2.65,2.65,0,0,1-.57-1.75,3.06,3.06,0,0,1,.56-1.93,1.86,1.86,0,0,1,1.51-.7,1.55,1.55,0,0,1,.78.19,1.64,1.64,0,0,1,.55.53V24.91ZM69.57,29a1.85,1.85,0,0,0,.27,1.06.86.86,0,0,0,.79.4.93.93,0,0,0,.81-.4,1.76,1.76,0,0,0,.27-1,1.6,1.6,0,0,0-.44-1.26,1,1,0,0,0-.63-.23.88.88,0,0,0-.81.42A1.94,1.94,0,0,0,69.57,29Zm7.59,1.69-.09.13a.77.77,0,0,1-.17.19,1.5,1.5,0,0,1-.57.36,1.76,1.76,0,0,1-.64.1,1.42,1.42,0,0,1-1.43-.76,2.94,2.94,0,0,1-.21-1.25V26.58h1.28v2.89a1.63,1.63,0,0,0,.1.62.67.67,0,0,0,.67.36.88.88,0,0,0,.88-.52,1.87,1.87,0,0,0,.12-.74V26.58h1.27v4.8H77.16Zm6.57-2.4H82.44a1,1,0,0,0-.18-.48.76.76,0,0,0-.65-.29.87.87,0,0,0-.87.63,2.69,2.69,0,0,0-.12.89,2.41,2.41,0,0,0,.12.84.84.84,0,0,0,.85.6.73.73,0,0,0,.62-.24,1.11,1.11,0,0,0,.22-.61h1.28a2.06,2.06,0,0,1-.41,1.08,2,2,0,0,1-1.74.82,2.09,2.09,0,0,1-1.71-.68,2.8,2.8,0,0,1-.54-1.78,2.8,2.8,0,0,1,.6-1.92,2.09,2.09,0,0,1,1.66-.69,2.51,2.51,0,0,1,1.48.41A1.86,1.86,0,0,1,83.73,28.3Zm3,2.18v.94l-.59,0A1.6,1.6,0,0,1,85,31.13a.9.9,0,0,1-.21-.66V27.52H84.1v-.89h.66V25.29H86v1.34h.78v.89H86v2.53a.57.57,0,0,0,.08.37s.2.07.45.07h.25Zm7.27.9v-2.9H91.52v2.9H90.18V24.9h1.34v2.47h2.53V24.9h1.34v6.48Zm5.61-.68-.09.13a.77.77,0,0,1-.17.19,1.5,1.5,0,0,1-.57.36,1.76,1.76,0,0,1-.64.1,1.42,1.42,0,0,1-1.43-.76,2.94,2.94,0,0,1-.21-1.25V26.58h1.28v2.89a1.63,1.63,0,0,0,.1.62.67.67,0,0,0,.67.36.88.88,0,0,0,.88-.52,1.87,1.87,0,0,0,.12-.74V26.58h1.27v4.8H99.66Zm4.68-3.19a.88.88,0,0,0-.88.54,1.92,1.92,0,0,0-.12.73v2.6h-1.25V26.59h1.21v.7a2.1,2.1,0,0,1,.46-.53,1.58,1.58,0,0,1,1-.29,1.83,1.83,0,0,1,1.21.39,1.57,1.57,0,0,1,.47,1.29v3.23h-1.28V28.46a1.31,1.31,0,0,0-.1-.58A.7.7,0,0,0,104.34,27.51Zm5.43,3v.94l-.59,0a1.56,1.56,0,0,1-1.21-.31.9.9,0,0,1-.21-.66V27.52h-.67v-.89h.67V25.29H109v1.34h.77v.89H109v2.53c0,.2,0,.32.07.37s.2.07.46.07h.24ZM54.55,44.66H53l.35-1.32h1.6l.85-3.14h1.55l-.85,3.14h1.3l.83-3.14h1.55l-.83,3.14h1.57l-.35,1.32H59l-.63,2.28h1.59l-.35,1.31H58l-.84,3.13H55.59l.83-3.13H55.14l-.85,3.13H52.73l.86-3.13H52l.35-1.31h1.59Zm2.22,2.28.64-2.28h-1.3l-.61,2.28Zm9.69-4.59a1.63,1.63,0,0,0-2.52.28A3.66,3.66,0,0,0,63.69,44H61.52a5.38,5.38,0,0,1,.53-2.33A3.26,3.26,0,0,1,65.21,40a4,4,0,0,1,2.86,1,3.42,3.42,0,0,1,1.06,2.63,3.58,3.58,0,0,1-.75,2.24,7.48,7.48,0,0,1-1.61,1.44l-.89.64c-.56.39-.94.68-1.15.86a2.34,2.34,0,0,0-.52.61h5v2H61.4a5.26,5.26,0,0,1,.52-2.23,6.27,6.27,0,0,1,2.25-2.4,15.27,15.27,0,0,0,2-1.58,2.29,2.29,0,0,0,.7-1.62A1.79,1.79,0,0,0,66.46,42.35Zm13.89,4.88H77.91v4.15H75.52V39.86h5a4.11,4.11,0,0,1,2.77.89,3.47,3.47,0,0,1,1,2.76,3.55,3.55,0,0,1-1,2.88A4.57,4.57,0,0,1,80.35,47.23Zm1.13-2.39A1.7,1.7,0,0,0,82,43.52a1.55,1.55,0,0,0-.48-1.28,2.05,2.05,0,0,0-1.32-.38H77.91v3.39h2.24A2,2,0,0,0,81.48,44.84Zm8.75.07a1.86,1.86,0,0,0-1.8.88,3.41,3.41,0,0,0-.26,1.51v4.08H85.93V42.86h2.12v1.48a5.17,5.17,0,0,1,.9-1.16,2.45,2.45,0,0,1,1.63-.52h.3V45l-.38,0Zm9-1a5.28,5.28,0,0,1,0,6.4,4.7,4.7,0,0,1-6.55,0,5.32,5.32,0,0,1,0-6.4,4.65,4.65,0,0,1,6.55,0ZM96,44.47a1.77,1.77,0,0,0-1.5.69,3.94,3.94,0,0,0,0,4,2,2,0,0,0,3,0,4,4,0,0,0,0-4A1.77,1.77,0,0,0,96,44.47Zm13.7-4.59v11.5h-2.16V50.2a3.18,3.18,0,0,1-1.09,1.1,3,3,0,0,1-1.51.34,3.14,3.14,0,0,1-2.51-1.21,4.61,4.61,0,0,1-1-3.09,5.31,5.31,0,0,1,1-3.43,3.24,3.24,0,0,1,2.68-1.25,2.72,2.72,0,0,1,1.38.34,2.67,2.67,0,0,1,1,.94V39.88Zm-6,7.29a3.33,3.33,0,0,0,.47,1.88,1.56,1.56,0,0,0,1.41.72,1.65,1.65,0,0,0,1.44-.71,3.16,3.16,0,0,0,.49-1.82,2.81,2.81,0,0,0-.79-2.23,1.71,1.71,0,0,0-1.13-.41,1.56,1.56,0,0,0-1.43.74A3.45,3.45,0,0,0,103.7,47.17Zm13.49,3-.16.24a1.38,1.38,0,0,1-.3.34,2.93,2.93,0,0,1-1,.64,3.51,3.51,0,0,1-1.14.17A2.55,2.55,0,0,1,112,50.2a5.25,5.25,0,0,1-.37-2.21V42.86H114V48a2.63,2.63,0,0,0,.17,1.1,1.18,1.18,0,0,0,1.19.64,1.57,1.57,0,0,0,1.57-.92,3.44,3.44,0,0,0,.21-1.32V42.86h2.26v8.52h-2.16Zm11.68-4.26h-2.28a2.18,2.18,0,0,0-.32-.86,1.36,1.36,0,0,0-1.17-.51,1.53,1.53,0,0,0-1.54,1.12,4.77,4.77,0,0,0-.22,1.57,4.42,4.42,0,0,0,.22,1.51,1.49,1.49,0,0,0,1.5,1.06,1.33,1.33,0,0,0,1.11-.42,2.09,2.09,0,0,0,.4-1.09h2.27a3.65,3.65,0,0,1-.73,1.92,3.58,3.58,0,0,1-3.1,1.46,3.63,3.63,0,0,1-3-1.22,4.94,4.94,0,0,1-1-3.16,5,5,0,0,1,1.07-3.41,3.68,3.68,0,0,1,3-1.22,4.43,4.43,0,0,1,2.62.72A3.33,3.33,0,0,1,128.87,45.91Zm5.43,3.88v1.66l-1.06,0a2.8,2.8,0,0,1-2.15-.54,1.64,1.64,0,0,1-.38-1.18V44.52h-1.19V42.94h1.19V40.56h2.2v2.38h1.39v1.58h-1.39V49a1,1,0,0,0,.14.66,1.53,1.53,0,0,0,.81.12h.44Zm13-5.85a5.28,5.28,0,0,1,0,6.4,4.68,4.68,0,0,1-6.54,0,5.28,5.28,0,0,1,0-6.4,4.64,4.64,0,0,1,6.54,0Zm-3.28.53a1.77,1.77,0,0,0-1.5.69,3.94,3.94,0,0,0,0,4,2,2,0,0,0,3,0,3.94,3.94,0,0,0,0-4A1.77,1.77,0,0,0,144,44.47Zm9.95-4.68V41.6c-.13,0-.34,0-.63,0a.7.7,0,0,0-.61.19.73.73,0,0,0-.17.46v.72H154v1.57h-1.46v6.87h-2.22V44.51h-1.24V42.94h1.22v-.55a2.85,2.85,0,0,1,.46-1.88c.32-.51,1.1-.77,2.34-.77h.38Zm9.68,10v1.66l-1.06,0a2.8,2.8,0,0,1-2.15-.54,1.64,1.64,0,0,1-.38-1.18V44.52h-1.19V42.94H160V40.56h2.2v2.38h1.39v1.58h-1.39V49a1,1,0,0,0,.14.66,1.56,1.56,0,0,0,.81.12h.44Zm9.12-3.41v5h-2.27V46.2a2.23,2.23,0,0,0-.24-1.11,1.16,1.16,0,0,0-1.15-.6,1.59,1.59,0,0,0-1.34.59,2.7,2.7,0,0,0-.46,1.69v4.61h-2.22V39.9h2.22V44a2.75,2.75,0,0,1,1.12-1,3.26,3.26,0,0,1,1.34-.29,3.7,3.7,0,0,1,1.44.27,2.55,2.55,0,0,1,1,.84,2.13,2.13,0,0,1,.43,1A10.86,10.86,0,0,1,172.74,46.38Zm9.37,2.5a2.83,2.83,0,0,1-.79,1.53,3.86,3.86,0,0,1-3.06,1.25,4.31,4.31,0,0,1-2.87-1,4.22,4.22,0,0,1-1.24-3.41,4.73,4.73,0,0,1,1.12-3.39,3.86,3.86,0,0,1,2.91-1.18,4.5,4.5,0,0,1,1.91.4,3.4,3.4,0,0,1,1.41,1.26,4.32,4.32,0,0,1,.65,1.76,11,11,0,0,1,.07,1.68h-5.83a2.1,2.1,0,0,0,.81,1.8,1.81,1.81,0,0,0,1.1.32,1.61,1.61,0,0,0,1.12-.39,1.89,1.89,0,0,0,.42-.58Zm-2.2-2.61a2,2,0,0,0-.54-1.34,1.64,1.64,0,0,0-1.19-.46A1.51,1.51,0,0,0,177,45a2.44,2.44,0,0,0-.53,1.32Zm13.39,5.11h-5V39.86h5a6,6,0,0,1,1.79.25,3.84,3.84,0,0,1,2,1.46,5.17,5.17,0,0,1,.82,1.86,9.34,9.34,0,0,1,.22,1.91,7.62,7.62,0,0,1-.93,3.89A4.16,4.16,0,0,1,193.3,51.38Zm1.79-8.58a2.32,2.32,0,0,0-2.19-.94h-2.22v7.52h2.22a2.39,2.39,0,0,0,2.37-1.68,5.86,5.86,0,0,0,.37-2.2A5.39,5.39,0,0,0,195.09,42.8Zm4.95,1a3.64,3.64,0,0,1,3-1.12,5.36,5.36,0,0,1,2.48.55,2.12,2.12,0,0,1,1.09,2.09v3.91c0,.27,0,.6,0,1a1.22,1.22,0,0,0,.13.59.81.81,0,0,0,.33.26v.33H204.7a3,3,0,0,1-.15-.49q0-.22-.06-.51a4.89,4.89,0,0,1-1.06.85,3.26,3.26,0,0,1-1.63.41,2.81,2.81,0,0,1-1.91-.66,2.35,2.35,0,0,1-.75-1.87,2.41,2.41,0,0,1,1.21-2.27,5.31,5.31,0,0,1,2-.55l.76-.09A3.85,3.85,0,0,0,204,46a.68.68,0,0,0,.47-.63.77.77,0,0,0-.36-.73,2.33,2.33,0,0,0-1.07-.19,1.37,1.37,0,0,0-1.11.39,1.55,1.55,0,0,0-.32.78h-2.15A3.29,3.29,0,0,1,200,43.78Zm1.66,6a1.14,1.14,0,0,0,.76.25,2.3,2.3,0,0,0,1.33-.42,1.78,1.78,0,0,0,.62-1.54v-.83a2.82,2.82,0,0,1-.42.22,5,5,0,0,1-.59.15l-.5.1a3.13,3.13,0,0,0-1,.3,1,1,0,0,0-.51,1A1,1,0,0,0,201.7,49.77Zm10.38-.63,1.76-6.28h2.36l-2.92,8.37a12.06,12.06,0,0,1-1.33,3,2.54,2.54,0,0,1-2,.58h-.48l-.54,0V53h.28a3.27,3.27,0,0,0,.63,0,1.29,1.29,0,0,0,.5-.18,1.18,1.18,0,0,0,.36-.55,1.3,1.3,0,0,0,.14-.52l-3.13-8.89h2.48Z" style="fill: #ea532a"/>
    <g>
      <path d="M21.33,40.74l-4,8.53c-.13.26,0,.42.42.34l3.26-.7a.23.23,0,0,1,.2,0,.25.25,0,0,1,.12.16l1.47,3c.14.33.3.39.42.14l4.26-8.94Zm12.34,0,4,8.53c.14.26,0,.42-.42.34L34,48.91a.24.24,0,0,0-.32.17l-1.47,3c-.14.33-.29.39-.43.14l-4.25-8.94Z" style="fill: #de7818"/>
      <path d="M26.3,45.77h0a10.42,10.42,0,0,1-6-2.75s0,0,0,0l.18-.39s0,0,0,0a10.81,10.81,0,0,0,6,2.66s0,0,0,0Z" style="fill: #b35454;fill-rule: evenodd"/>
      <circle cx="27.5" cy="34.86" r="10.49" style="fill: #9b9b9b"/>
      <circle cx="27.5" cy="34.86" r="9.05" style="fill: #949494"/>
      <circle cx="27.75" cy="35.13" r="8.75" style="fill: #b6b6b6"/>
      <path d="M24.19,33.39v0h2v0a1.16,1.16,0,0,1,1.23-1.19,1,1,0,0,1,1.15,1c0,.5-.31.93-1.56,2.08l-2.67,2.51v1.44h6.43V37.58H27.18v-.11l1.39-1.28c1.5-1.34,2.05-2.17,2.05-3.11,0-1.49-1.26-2.51-3.15-2.51S24.19,31.71,24.19,33.39Z" style="fill: #efefef;fill-rule: evenodd"/>
      <path d="M30,27.46a7.61,7.61,0,0,1,.35,14.7A9.37,9.37,0,0,0,30,27.46Z" style="fill: #fff;fill-opacity: 0.200000002980232;fill-rule: evenodd"/>
      <path d="M28.7,45.77h0a10.51,10.51,0,0,0,6-2.73l0,0-.19-.39s0,0,0,0a10.82,10.82,0,0,1-6,2.64s0,0,0,0Z" style="fill: #b35454;fill-rule: evenodd"/>
    </g>
  </g>
</svg>
