<svg xmlns="http://www.w3.org/2000/svg" xmlns:xlink="http://www.w3.org/1999/xlink" viewBox="0 0 136 135">
  <defs>
    <linearGradient id="linear-gradient-ss" x1="97.17" y1="93.29" x2="126.84" y2="122.97" gradientUnits="userSpaceOnUse">
      <stop offset="0.25" stop-color="#ffed8c"/>
      <stop offset="0.66" stop-color="#f2a12c"/>
      <stop offset="1" stop-color="#94541f"/>
    </linearGradient>
    <linearGradient id="linear-gradient-ss-2" x1="1377.64" y1="93.29" x2="1407.31" y2="122.97" gradientTransform="matrix(-1, 0, 0, 1, 1416.47, 0)" xlink:href="#linear-gradient-ss"/>
    <linearGradient id="linear-gradient-ss-3" x1="24.3" y1="5.81" x2="111.7" y2="93.22" gradientUnits="userSpaceOnUse">
      <stop offset="0" stop-color="#ffed8c"/>
      <stop offset="0.22" stop-color="#f6b647"/>
      <stop offset="0.56" stop-color="#f2a12c"/>
      <stop offset="1" stop-color="#ffed8c"/>
    </linearGradient>
    <linearGradient id="linear-gradient-ss-4" x1="60.49" y1="19.1" x2="76.53" y2="19.1" gradientUnits="userSpaceOnUse">
      <stop offset="0" stop-color="#f8c663"/>
      <stop offset="0.66" stop-color="#f2a12c"/>
      <stop offset="1" stop-color="#fad579"/>
    </linearGradient>
  </defs>
  <path id="Blank" d="M66.62,133.72a131.69,131.69,0,0,1-27.48-23.49L17.38,132.09V113.94H1L20.78,94.67l-8.93-6.19V56.77l0,0c-3-13.3-3.59-25.18-3.1-38.44a.79.79,0,0,1,1-.75,17.58,17.58,0,0,0,3.66.64,5.25,5.25,0,0,0,5-3.54L19,13.43a.75.75,0,0,1,.83-.48,62.37,62.37,0,0,0,9,.65c14.38,0,29.1-4.75,37.48-12.09l1.15-1a.79.79,0,0,1,1.06,0l1.15,1c8.39,7.34,23.1,12.09,37.48,12.09a62.79,62.79,0,0,0,9-.65.75.75,0,0,1,.84.48l.52,1.22a5.37,5.37,0,0,0,5,3.54,16.6,16.6,0,0,0,3.68-.64.79.79,0,0,1,1,.75c.49,13.31-.14,25.21-3.1,38.44l0,0V88.48l-8.93,6.19L135,113.94H118.62v18.15L96.86,110.23a131.69,131.69,0,0,1-27.48,23.49C67.84,134.7,68.15,134.7,66.62,133.72Z" style="fill: #fff"/>
  <g id="Software_Suggest_Badge" data-name="Software Suggest Badge">
    <path d="M118.82,114.14v18.43L95.17,108.82l10.07-24.15,30.26,29.47Zm-101.64,0v18.43l23.65-23.75L30.76,84.67.5,114.14Z" style="fill: #175b8c"/>
    <path d="M96.61,105.37l22.21,22.55V131L95.68,107.6Zm7.31-17.53,27.1,26.3h3L104.85,85.61Z" style="fill: url(#linear-gradient-ss)"/>
    <path d="M40.32,107.6,17.18,131v-3.07l22.21-22.55Zm-9.17-22L1.94,114.14H5l27.1-26.3Z" style="fill: url(#linear-gradient-ss-2)"/>
    <path d="M124.35,88.58,95.17,108.82V77l29.18-20.24Zm-112.7,0,29.18,20.24V77L11.65,56.75Z" style="fill: #00385b"/>
    <path d="M67.06,133A126.67,126.67,0,0,1,26.68,91.91C14.31,71.25,8.53,47.2,9.51,20.43l.07-2.1a16.87,16.87,0,0,0,3.84.65,6,6,0,0,0,5.78-4l.52-1.22,1.32.17a61.5,61.5,0,0,0,7.8.49c14.57,0,29.48-4.83,38-12.29L68,1.1l1.15,1c8.53,7.46,23.45,12.29,38,12.29a61.5,61.5,0,0,0,7.8-.49l1.32-.17.51,1.22a6.25,6.25,0,0,0,7.58,3.82l2-.45.07,2.1c1,26.77-4.8,50.82-17.17,71.48A126.67,126.67,0,0,1,68.94,133l-.94.61Z" style="fill: none;stroke: #175b8c;stroke-linejoin: round;stroke-width: 1.9992586528373024px"/>
    <path d="M124.74,20.49a7.94,7.94,0,0,1-9.56-4.84C99.06,17.74,79.19,13.22,68,3.42c-11.19,9.8-31.06,14.32-47.18,12.23a7.94,7.94,0,0,1-9.56,4.84C9.14,78.7,39.58,113.32,68,131.57,96.42,113.32,126.86,78.7,124.74,20.49Z" style="fill: #fff;stroke-miterlimit: 10;stroke-width: 1.4994439896279768px;stroke: url(#linear-gradient-ss-3)"/>
    <path d="M41.27,49.6a12.49,12.49,0,0,1-3.46-.79h-.16a1,1,0,0,1-.78-.94l-.63-2.37-.16-.78v-.16l.16-.16h.31l.16.47a4.82,4.82,0,0,0,.94,1.74,6.05,6.05,0,0,0,3.46,2,5.5,5.5,0,0,0,3.15-.78,3,3,0,0,0,1.58-2,2.8,2.8,0,0,0-1.58-3.31l-2.83-1.26A11.59,11.59,0,0,1,38.6,40a3.94,3.94,0,0,1-1.73-1.89,4.6,4.6,0,0,1-.32-2.05,4.3,4.3,0,0,1,2.83-3.78A6.49,6.49,0,0,1,44,32.12l.94.31h.79l.16-.16.31.16v.32l.31,2.2.16.95v.15l-.16.16h-.31L46,35.74a4.36,4.36,0,0,0-1.57-2.21,7,7,0,0,0-2.52-.94,3.14,3.14,0,0,0-2.36.31A2.43,2.43,0,0,0,38,34.79a2.53,2.53,0,0,0,.63,2.37,2.76,2.76,0,0,0,1.26,1.1L43,39.36a6.35,6.35,0,0,1,2.68,1.58,3.21,3.21,0,0,1,1.41,2.52,4.84,4.84,0,0,1-1.88,4.88,7,7,0,0,1-3,1.1ZM70.54,38.73l-.15.79-.32.63a.83.83,0,0,1-1.42.16l-.31-.79-1.42-4.41h1.26l.63,2,.63,2.52.16.15.16-.15.63-1.74v-.15l-.79-2.52V35h1.1l.16.16.63,2.2.63,2.37.15.15h.16v-.31C73,38,73.49,36.48,74,35h.32L74,36.05l-1.1,3.47-.31.63a.77.77,0,0,1-1.42,0l-.47-.95-.16-.63Zm16.84,1.73H86l-1.25-2.67.47-.16c.47,0,.63-.32.78-.79l-.15-.79c0-.31-.32-.47-.79-.63h-.79v5H83V35h2.21l1.1.16A1.37,1.37,0,0,1,87.07,37l-.79.79H86ZM62,45l-.47.32-.15-.48a1.79,1.79,0,0,0-1.74-.47,1.27,1.27,0,0,0-.78.79l-.32,1.1A3.06,3.06,0,0,0,58.9,48a.86.86,0,0,0,.47.79,1,1,0,0,0,1.1.32c.32,0,.47-.32.63-.63l.16-.79v-1h.94v4.89h-.94V49.13l-.16.15a2.11,2.11,0,0,1-2.36,0,2.5,2.5,0,0,1-1.26-2.2,2.67,2.67,0,0,1,.32-1.89,2.79,2.79,0,0,1,1.73-1.26,2.12,2.12,0,0,1,2.2.63Zm8.5,0-.47.32L69.91,45a1.28,1.28,0,0,0-1.57-.63c-.47,0-.63.32-.94.63l-.16,1.1v1.74l.47.94,1.1.32a1.06,1.06,0,0,0,.79-.63l.16-.63V46.76h.94v4.89h-.94V49.13H69.6a2.15,2.15,0,0,1-2.68,0,3.16,3.16,0,0,1-1.1-2.52,3.1,3.1,0,0,1,1.42-2.37,2.51,2.51,0,0,1,2.36-.15A1.39,1.39,0,0,1,70.54,45ZM52.45,40.62a2.77,2.77,0,0,1-2.84-2.52,2.54,2.54,0,0,1,.16-1.57A2.23,2.23,0,0,1,52.13,35a2.71,2.71,0,0,1,2.68,2v2A2.43,2.43,0,0,1,52.45,40.62Zm-1.74-2.83.16.63.47,1.41a1.22,1.22,0,0,0,1.73,0l.48-.78.15-2.21-.63-1.26a1.24,1.24,0,0,0-1.73,0l-.31.63Zm7.87-2.68h1.26v.31l-.16.16h-.94l-.16.16v4.72h-1.1V32.59a1.43,1.43,0,0,1,1-1h1.25l.16.16c0,.32,0,.32-.31.32h-.48c-.31.15-.47.15-.47.63Zm-9,9h1.1v3.46l.16.63c.16.47.47.63,1,.79l.31-.16c.47,0,.79-.31.94-.94V44.24l.16-.15c.32,0,.32,0,.32.31v3.15l-.16,1a1.53,1.53,0,0,1-1.26,1.1l-1.26-.16a1.72,1.72,0,0,1-1.26-1.26V44.09Zm31-3.63h-1.1L79,39.2l-.16-.47H77.15l-.31.16-.32,1.42-.15.15h-.48l.32-.78,1.1-3.94v-.32A1,1,0,0,1,79,35.27l.32.63,1.25,4.41Zm-1.73-2.2h-.15l-.16-.79-.32-1.42-.31-.31-.16.31h-.16l-.31,1.26-.32.95ZM93.2,35.11v.31H91.32c-.48,0-.48.16-.48.63v1.26h1.73l.16.16c0,.32,0,.32-.31.32H90.84v1.73c0,.31,0,.47.32.47h2v.47h-3c-.47-.15-.63-.31-.63-.63V35.58c.16-.31.32-.47.63-.47l.32-.16h2.52ZM77.94,46.29v.47H76.05v1.89c0,.16,0,.32.32.32h2v.47h-3c-.31-.16-.47-.16-.47-.47V44.56c0-.32.16-.47.63-.47h2.83v.31H77.15l-.63.16c-.31,0-.47,0-.47.31v1.26l.16.16ZM82.35,49h1.73a.71.71,0,0,0,.31-1.26l-.63-.47-1.1-.79a1.45,1.45,0,0,1-.47-1.1,1.49,1.49,0,0,1,1.26-1.26L85,43.93l.16.16h.16v.31h-.79l-.79.16c-.47.16-.63.63-.31.94l.63.48,1.1.78A1.48,1.48,0,0,1,85,49.28a2.19,2.19,0,0,1-1.42.16H82.5l-.15-.16ZM63.93,40.46H62.67V35.74l-.15-.32h-1v-.31H65v.31h-1.1Zm27.7,9h-1.1V44.56h-1l-.15-.16c0-.47-.16-.31.31-.31h3.15v.31l-.16.16h-.79c-.31,0-.15-.16-.15.16v4.56ZM97.3,32.27A2.68,2.68,0,1,1,94.62,35a2.68,2.68,0,0,1,2.68-2.68ZM94.93,35a2.29,2.29,0,1,0,2.29-2.28A2.3,2.3,0,0,0,94.93,35Zm2.84.32.47.94h-.32l-.62-.94h-.48v.94h-.47V33.69h1.1l.32.16h.31l.16.47.16.16-.16.31V35l-.32.32Zm-1-.32h.63l.16-.16h.16l.15-.15v-.48h-.15L97.61,34h-.79Z" style="fill: #175b8c;fill-rule: evenodd"/>
    <rect x="11.65" y="56.75" width="112.7" height="31.83" style="fill: #175b8c"/>
    <path d="M30.62,61.35h1.83l2.55,6,2.55-6h1.81v8H37.75V64.15l-2.14,5.22H34.39l-2.16-5.22v5.22H30.62Zm13.16,8.13a3.12,3.12,0,0,1-3.23-3.29,3.28,3.28,0,1,1,6.55,0A3.18,3.18,0,0,1,43.78,69.48Zm0-1.41a1.9,1.9,0,0,0,0-3.77,1.66,1.66,0,0,0-1.62,1.89C42.18,67.45,42.92,68.07,43.78,68.07Zm6.94,1.41c-1.6,0-2.71-.93-2.78-2.12h1.62a1.06,1.06,0,0,0,1.15.85c.63,0,1-.29,1-.65,0-1.14-3.6-.42-3.6-2.75,0-1.06.94-1.91,2.52-1.91A2.28,2.28,0,0,1,53.17,65H51.63a1,1,0,0,0-1.07-.82c-.6,0-.91.24-.91.61,0,1.16,3.53.43,3.58,2.77C53.23,68.65,52.27,69.48,50.72,69.48Zm4.08-5.15H54V63h.76V61.43h1.62V63h1.43v1.33H56.42v3.08c0,.42.17.61.68.61h.75v1.35h-1c-1.22,0-2-.51-2-2Zm9.9,2H63.35v3.08H61.74v-8h3c1.93,0,2.89,1.09,2.89,2.48C67.59,65.05,66.77,66.29,64.7,66.29ZM64.63,65c.91,0,1.31-.45,1.31-1.16s-.4-1.17-1.31-1.17H63.35V65Zm6.93,4.49a3.12,3.12,0,0,1-3.23-3.29,3.28,3.28,0,1,1,6.55,0A3.18,3.18,0,0,1,71.56,69.48Zm0-1.41a1.9,1.9,0,0,0,0-3.77A1.66,1.66,0,0,0,70,66.19C70,67.45,70.7,68.07,71.56,68.07Zm8.22-5.17a3,3,0,0,1,2.91,3.27,3,3,0,0,1-2.91,3.31,2.65,2.65,0,0,1-2.11-1v3.94h-1.6V63h1.6v.92A2.55,2.55,0,0,1,79.78,62.9Zm-.43,1.41A1.89,1.89,0,1,0,81,66.17,1.7,1.7,0,0,0,79.35,64.31Zm10.52,5.06H88.25v-.8a2.34,2.34,0,0,1-1.9.88,2.45,2.45,0,0,1-2.55-2.71V63h1.61v3.51c0,1,.56,1.58,1.41,1.58a1.38,1.38,0,0,0,1.43-1.58V63h1.62Zm1.59-8.51h1.61v8.51H91.46Zm5.69,2a2.51,2.51,0,0,1,2.1,1V63h1.62v6.37H99.25v-.93a2.52,2.52,0,0,1-2.12,1,3,3,0,0,1-2.89-3.31A3,3,0,0,1,97.15,62.9Zm.41,1.41a1.71,1.71,0,0,0-1.68,1.86,1.74,1.74,0,0,0,1.68,1.89,1.89,1.89,0,0,0,0-3.75Zm6.49,5.06h-1.6V63h1.6v1a2.23,2.23,0,0,1,2-1.08V64.6h-.43c-1,0-1.53.37-1.53,1.6ZM45.6,83.25c-1.67,0-3-.88-3-2.4h1.73a1.09,1.09,0,0,0,1.21,1.07c.76,0,1.21-.4,1.21-1,0-1.74-4.14-.69-4.12-3.6,0-1.45,1.17-2.33,2.82-2.33s2.77.84,2.88,2.29H46.58a1.06,1.06,0,0,0-1.15-1c-.64,0-1.11.28-1.11.94,0,1.61,4.12.71,4.12,3.54C48.44,82.11,47.43,83.25,45.6,83.25Zm7.06,0a3.29,3.29,0,0,1,0-6.58A3.15,3.15,0,0,1,56,80,3.18,3.18,0,0,1,52.66,83.27Zm0-1.4A1.7,1.7,0,0,0,54.32,80a1.65,1.65,0,1,0-3.26,0C51.06,81.24,51.79,81.87,52.66,81.87Zm4.67-3.75h-.72V76.79h.72v-.32c0-1.56.89-2.29,2.68-2.24v1.36c-.78,0-1,.23-1,.94v.26h1.11v1.33H59v5H57.33Zm4.05,0h-.76V76.79h.76V75.22H63v1.57h1.43v1.33H63V81.2c0,.42.17.61.68.61h.75v1.36h-1a1.77,1.77,0,0,1-2-2Zm3.49-1.33h1.64l1.12,4.86,1.22-4.86h1.7l1.2,4.85,1.12-4.85h1.54l-1.86,6.38H70.82l-1.16-4.46L68.5,83.17H66.75Zm12.91-.1a2.52,2.52,0,0,1,2.11,1v-.91h1.62v6.38H79.89v-.94a2.51,2.51,0,0,1-2.12,1A3,3,0,0,1,74.87,80,3,3,0,0,1,77.78,76.69Zm.42,1.41A1.7,1.7,0,0,0,76.52,80a1.73,1.73,0,0,0,1.68,1.89,1.89,1.89,0,0,0,0-3.75Zm6.49,5.07H83.08V76.79h1.61v1a2.22,2.22,0,0,1,2-1.08v1.69h-.42c-1,0-1.53.37-1.53,1.6Zm5.82.1a3.29,3.29,0,0,1,0-6.58,3,3,0,0,1,3.13,3.15,4.21,4.21,0,0,1,0,.62H88.94a1.49,1.49,0,0,0,1.53,1.47,1.31,1.31,0,0,0,1.28-.77h1.73A3,3,0,0,1,90.51,83.27ZM89,79.38h3A1.42,1.42,0,0,0,90.46,78,1.47,1.47,0,0,0,89,79.38Z" style="fill: #fff"/>
    <path d="M57.88,96.5h.85l.7,3.07.8-3.07h.88l.76,3,.7-3h.85l-1.1,4h-.93l-.74-2.81-.78,2.81H59Zm6.06,0h.79v4h-.79Zm4.94,0v4h-.79L66.3,97.74v2.71h-.79v-4h.79l1.79,2.71V96.5Zm.58,0h2.89v.64h-1v3.31h-.79V97.14H69.46Zm5.76.64h-1.5v1h1.33v.63H73.72v1h1.5v.64H72.93v-4h2.29Zm2.19-.64c1,0,1.43.55,1.43,1.22a1.14,1.14,0,0,1-.9,1.13l.94,1.6H78l-.87-1.54h-.38v1.54h-.79v-4Zm0,.66h-.67v1.16h.67c.44,0,.63-.23.63-.59S77.83,97.16,77.39,97.16Zm-20.6,14.36c1.69-1.44,3.45-2.76,3.45-4.13,0-.66-.29-1.11-1-1.11s-1.06.49-1.07,1.28H56.78a2.34,2.34,0,0,1,2.48-2.5,2.15,2.15,0,0,1,2.41,2.25c0,1.73-1.66,3.08-2.85,4.08h3v1.19H56.79Zm8.71-6.44c2.1,0,2.76,1.62,2.76,3.78s-.66,3.8-2.76,3.8-2.76-1.63-2.76-3.8S63.39,105.08,65.5,105.08Zm0,1.33c-1.21,0-1.35,1.17-1.35,2.45s.14,2.47,1.35,2.47,1.35-1.14,1.35-2.47S66.7,106.41,65.5,106.41Zm3.76,5.11c1.68-1.44,3.45-2.76,3.45-4.13,0-.66-.3-1.11-1-1.11s-1.06.49-1.07,1.28H69.25a2.34,2.34,0,0,1,2.48-2.5,2.15,2.15,0,0,1,2.41,2.25c0,1.73-1.66,3.08-2.85,4.08h3v1.19h-5Zm5.86,0c1.69-1.44,3.46-2.76,3.46-4.13,0-.66-.3-1.11-1-1.11s-1.07.49-1.08,1.28H75.11a2.35,2.35,0,0,1,2.49-2.5A2.15,2.15,0,0,1,80,107.31c0,1.73-1.67,3.08-2.85,4.08h3v1.19h-5Z" style="fill: #00385b"/>
    <path d="M68.51,21.56c-1.75,0-5.07.25-5.07,1.2S66.76,24,68.51,24s5.07-.25,5.07-1.19S70.26,21.56,68.51,21.56Zm0,2c-3.05,0-4.71-.55-4.71-.83S65.33,22,68.51,22s4.72.52,4.72.72S71.56,23.59,68.51,23.59ZM61.08,17a.51.51,0,0,1-.17,0,.41.41,0,0,1-.42-.41.42.42,0,0,1,.84,0,.39.39,0,0,1-.11.27l2.69,1.85a.72.72,0,0,0-.23.53.74.74,0,0,0,1.47,0,.73.73,0,0,0-.64-.72l.15-2.69a.42.42,0,1,1,.42-.42.41.41,0,0,1-.14.31l1.67,2.19a.74.74,0,0,0-.29.6.78.78,0,0,0,1.55,0,.77.77,0,0,0-.51-.73l1-2.7a.43.43,0,0,1-.26-.39.42.42,0,0,1,.84,0,.44.44,0,0,1-.25.39l1,2.7a.77.77,0,0,0-.51.73.78.78,0,0,0,.78.77.77.77,0,0,0,.77-.77.74.74,0,0,0-.29-.6l1.7-2.16a.44.44,0,0,1-.17-.34.42.42,0,1,1,.42.42l.15,2.69a.72.72,0,0,0-.63.72.73.73,0,1,0,1.23-.53l2.69-1.85a.43.43,0,0,1-.1-.27.42.42,0,1,1,.83,0,.41.41,0,0,1-.42.41.47.47,0,0,1-.17,0L73.5,22.27c-.86-.83-3.94-.91-5-.91h0c-1.05,0-4.12.08-5,.91Z" style="fill: url(#linear-gradient-ss-4)"/>
    <path d="M81.08,19.69l.48,1.46h1.52l-1.23.9.47,1.45-1.24-.9-1.23.9.47-1.45-1.24-.9h1.53Zm4.23,1.46H84l1,.75-.4,1.22,1-.75,1,.75-.39-1.22,1-.75H86.1l-.39-1.22Zm4,.11h-.95l.77.56-.29.9.77-.56.77.56-.3-.9.77-.56h-1l-.29-.91Zm-34.4-1.57-.48,1.46H52.92l1.23.9-.47,1.45,1.24-.9,1.23.9-.47-1.45,1.24-.9H55.39Zm-4.63.24-.39,1.22H48.62l1,.75-.39,1.22,1-.75,1,.75-.4-1.22,1-.75H50.69Zm-3.91.42-.29.91h-1l.77.56-.3.9.77-.56.77.56-.29-.9.77-.56h-1Z" style="fill: #f3a837"/>
  </g>
</svg>
